<svg width="200" height="200" xmlns="http://www.w3.org/2000/svg">
  <!-- Clock face background -->
  <circle cx="100" cy="100" r="95" fill="#f0f0f0" stroke="#333" stroke-width="3"/>

  <!-- Hour markers -->
  <line x1="100" y1="15" x2="100" y2="25" stroke="#333" stroke-width="3"/>
  <line x1="100" y1="175" x2="100" y2="185" stroke="#333" stroke-width="3"/>
  <line x1="15" y1="100" x2="25" y2="100" stroke="#333" stroke-width="3"/>
  <line x1="175" y1="100" x2="185" y2="100" stroke="#333" stroke-width="3"/>

  <line x1="32.32" y1="32.32" x2="39.39" y2="39.39" stroke="#333" stroke-width="2"/>
  <line x1="167.68" y1="32.32" x2="160.61" y2="39.39" stroke="#333" stroke-width="2"/>
  <line x1="32.32" y1="167.68" x2="39.39" y2="160.61" stroke="#333" stroke-width="2"/>
  <line x1="167.68" y1="167.68" x2="160.61" y2="160.61" stroke="#333" stroke-width="2"/>

  <line x1="50" y1="20.1" x2="52.68" y2="26.7" stroke="#666" stroke-width="1.5"/>
  <line x1="150" y1="20.1" x2="147.32" y2="26.7" stroke="#666" stroke-width="1.5"/>
  <line x1="20.1" y1="50" x2="26.7" y2="52.68" stroke="#666" stroke-width="1.5"/>
  <line x1="179.9" y1="50" x2="173.3" y2="52.68" stroke="#666" stroke-width="1.5"/>

  <line x1="20.1" y1="150" x2="26.7" y2="147.32" stroke="#666" stroke-width="1.5"/>
  <line x1="179.9" y1="150" x2="173.3" y2="147.32" stroke="#666" stroke-width="1.5"/>
  <line x1="50" y1="179.9" x2="52.68" y2="173.3" stroke="#666" stroke-width="1.5"/>
  <line x1="150" y1="179.9" x2="147.32" y2="173.3" stroke="#666" stroke-width="1.5"/>

  <!-- Hour hand (rotates once per 12 hours = 43200 seconds) -->
  <line x1="100" y1="100" x2="100" y2="50" stroke="#333" stroke-width="6" stroke-linecap="round">
    <animateTransform
      attributeName="transform"
      attributeType="XML"
      type="rotate"
      from="0 100 100"
      to="360 100 100"
      dur="43200s"
      repeatCount="indefinite"/>
  </line>

  <!-- Minute hand (rotates once per hour = 3600 seconds) -->
  <line x1="100" y1="100" x2="100" y2="35" stroke="#666" stroke-width="4" stroke-linecap="round">
    <animateTransform
      attributeName="transform"
      attributeType="XML"
      type="rotate"
      from="0 100 100"
      to="360 100 100"
      dur="3600s"
      repeatCount="indefinite"/>
  </line>

  <!-- Second hand (rotates once per minute = 60 seconds) -->
  <line x1="100" y1="100" x2="100" y2="25" stroke="#e74c3c" stroke-width="2" stroke-linecap="round">
    <animateTransform
      attributeName="transform"
      attributeType="XML"
      type="rotate"
      from="0 100 100"
      to="360 100 100"
      dur="60s"
      repeatCount="indefinite"/>
  </line>

  <!-- Center dot -->
  <circle cx="100" cy="100" r="6" fill="#333"/>
  <circle cx="100" cy="100" r="4" fill="#e74c3c"/>
</svg>
